<?xml version="1.0" encoding="UTF-8"?>
<!DOCTYPE svg PUBLIC "-//W3C//DTD SVG 1.1//EN" "http://www.w3.org/Graphics/SVG/1.1/DTD/svg11.dtd">
<svg width="162mm" height="91mm" viewBox="0 0 16200 9100" version="1.1" xmlns="http://www.w3.org/2000/svg" xmlns:xlink="http://www.w3.org/1999/xlink" stroke-width="28.222" stroke-linejoin="round" xml:space="preserve">
 <path fill="rgb(255,255,255)" stroke="none" d="M 8079,9089 L -13,9089 -13,-13 16170,-13 16170,9089 8079,9089 Z"/>
 <path fill="none" stroke="rgb(179,179,179)" stroke-linejoin="round" d="M 7422,7279 L 1930,7279 1930,2331 12914,2331 12914,7279 7422,7279 Z"/>
 <path fill="none" stroke="rgb(179,179,179)" stroke-linejoin="round" d="M 1930,2329 L 1930,7278"/>
 <path fill="none" stroke="rgb(179,179,179)" stroke-linejoin="round" d="M 3760,2329 L 3760,7278"/>
 <path fill="none" stroke="rgb(179,179,179)" stroke-linejoin="round" d="M 5591,2329 L 5591,7278"/>
 <path fill="none" stroke="rgb(179,179,179)" stroke-linejoin="round" d="M 7422,2329 L 7422,7278"/>
 <path fill="none" stroke="rgb(179,179,179)" stroke-linejoin="round" d="M 9252,2329 L 9252,7278"/>
 <path fill="none" stroke="rgb(179,179,179)" stroke-linejoin="round" d="M 11083,2329 L 11083,7278"/>
 <path fill="none" stroke="rgb(179,179,179)" stroke-linejoin="round" d="M 12914,2329 L 12914,7278"/>
 <path fill="none" stroke="rgb(179,179,179)" stroke-linejoin="round" d="M 12914,7278 L 1930,7278"/>
 <path fill="none" stroke="rgb(179,179,179)" stroke-linejoin="round" d="M 12914,6571 L 1930,6571"/>
 <path fill="none" stroke="rgb(179,179,179)" stroke-linejoin="round" d="M 12914,5864 L 1930,5864"/>
 <path fill="none" stroke="rgb(179,179,179)" stroke-linejoin="round" d="M 12914,5157 L 1930,5157"/>
 <path fill="none" stroke="rgb(179,179,179)" stroke-linejoin="round" d="M 12914,4451 L 1930,4451"/>
 <path fill="none" stroke="rgb(179,179,179)" stroke-linejoin="round" d="M 12914,3743 L 1930,3743"/>
 <path fill="none" stroke="rgb(179,179,179)" stroke-linejoin="round" d="M 12914,3036 L 1930,3036"/>
 <path fill="none" stroke="rgb(179,179,179)" stroke-linejoin="round" d="M 12914,2329 L 1930,2329"/>
 <path fill="none" stroke="rgb(179,179,179)" stroke-linejoin="round" d="M 1930,7428 L 1930,7278"/>
 <path fill="none" stroke="rgb(179,179,179)" stroke-linejoin="round" d="M 1930,7428 L 1930,7278"/>
 <path fill="none" stroke="rgb(179,179,179)" stroke-linejoin="round" d="M 3760,7428 L 3760,7278"/>
 <path fill="none" stroke="rgb(179,179,179)" stroke-linejoin="round" d="M 3760,7428 L 3760,7278"/>
 <path fill="none" stroke="rgb(179,179,179)" stroke-linejoin="round" d="M 5591,7428 L 5591,7278"/>
 <path fill="none" stroke="rgb(179,179,179)" stroke-linejoin="round" d="M 5591,7428 L 5591,7278"/>
 <path fill="none" stroke="rgb(179,179,179)" stroke-linejoin="round" d="M 7422,7428 L 7422,7278"/>
 <path fill="none" stroke="rgb(179,179,179)" stroke-linejoin="round" d="M 7422,7428 L 7422,7278"/>
 <path fill="none" stroke="rgb(179,179,179)" stroke-linejoin="round" d="M 9252,7428 L 9252,7278"/>
 <path fill="none" stroke="rgb(179,179,179)" stroke-linejoin="round" d="M 9252,7428 L 9252,7278"/>
 <path fill="none" stroke="rgb(179,179,179)" stroke-linejoin="round" d="M 11083,7428 L 11083,7278"/>
 <path fill="none" stroke="rgb(179,179,179)" stroke-linejoin="round" d="M 11083,7428 L 11083,7278"/>
 <path fill="none" stroke="rgb(179,179,179)" stroke-linejoin="round" d="M 12914,7428 L 12914,7278"/>
 <path fill="none" stroke="rgb(179,179,179)" stroke-linejoin="round" d="M 12914,7428 L 12914,7278"/>
 <path fill="none" stroke="rgb(179,179,179)" stroke-linejoin="round" d="M 1930,7278 L 12914,7278"/>
 <path fill="none" stroke="rgb(179,179,179)" stroke-linejoin="round" d="M 1780,7278 L 1930,7278"/>
 <path fill="none" stroke="rgb(179,179,179)" stroke-linejoin="round" d="M 1780,7278 L 1930,7278"/>
 <path fill="none" stroke="rgb(179,179,179)" stroke-linejoin="round" d="M 1780,6571 L 1930,6571"/>
 <path fill="none" stroke="rgb(179,179,179)" stroke-linejoin="round" d="M 1780,6571 L 1930,6571"/>
 <path fill="none" stroke="rgb(179,179,179)" stroke-linejoin="round" d="M 1780,5864 L 1930,5864"/>
 <path fill="none" stroke="rgb(179,179,179)" stroke-linejoin="round" d="M 1780,5864 L 1930,5864"/>
 <path fill="none" stroke="rgb(179,179,179)" stroke-linejoin="round" d="M 1780,5157 L 1930,5157"/>
 <path fill="none" stroke="rgb(179,179,179)" stroke-linejoin="round" d="M 1780,5157 L 1930,5157"/>
 <path fill="none" stroke="rgb(179,179,179)" stroke-linejoin="round" d="M 1780,4451 L 1930,4451"/>
 <path fill="none" stroke="rgb(179,179,179)" stroke-linejoin="round" d="M 1780,4451 L 1930,4451"/>
 <path fill="none" stroke="rgb(179,179,179)" stroke-linejoin="round" d="M 1780,3744 L 1930,3744"/>
 <path fill="none" stroke="rgb(179,179,179)" stroke-linejoin="round" d="M 1780,3744 L 1930,3744"/>
 <path fill="none" stroke="rgb(179,179,179)" stroke-linejoin="round" d="M 1780,3036 L 1930,3036"/>
 <path fill="none" stroke="rgb(179,179,179)" stroke-linejoin="round" d="M 1780,3036 L 1930,3036"/>
 <path fill="none" stroke="rgb(179,179,179)" stroke-linejoin="round" d="M 1780,2329 L 1930,2329"/>
 <path fill="none" stroke="rgb(179,179,179)" stroke-linejoin="round" d="M 1780,2329 L 1930,2329"/>
 <path fill="none" stroke="rgb(179,179,179)" stroke-linejoin="round" d="M 1930,7278 L 1930,2329"/>
 <path fill="none" stroke="rgb(255,0,0)" stroke-width="80" stroke-linejoin="round" d="M 1930,5298 L 3760,5439 5591,5793 7422,2754 9252,5086 11083,5369 12914,5864"/>
 <path fill="none" stroke="rgb(255,128,0)" stroke-width="80" stroke-linejoin="round" d="M 1930,6076 L 3760,5510 5591,6005 7422,5934 9252,5157 11083,4521 12914,6005"/>
 <path fill="none" stroke="rgb(129,212,26)" stroke-width="80" stroke-linejoin="round" d="M 1930,6005 L 3760,6571 5591,6288 7422,6146 9252,5227 11083,5298 12914,5157"/>
 <path fill="none" stroke="rgb(42,96,153)" stroke-width="80" stroke-linejoin="round" d="M 1930,5510 L 3760,5510 5591,5581 7422,5157 9252,5510 11083,6571 12914,5651"/>
 <text class="SVGTextShape"><tspan class="TextParagraph" font-family="Liberation Sans, sans-serif" font-size="353px" font-weight="400"><tspan class="TextPosition" x="1321" y="7846"><tspan fill="rgb(0,0,0)" stroke="none" style="white-space: pre">Monday</tspan></tspan></tspan></text>
 <text class="SVGTextShape"><tspan class="TextParagraph" font-family="Liberation Sans, sans-serif" font-size="353px" font-weight="400"><tspan class="TextPosition" x="3098" y="7846"><tspan fill="rgb(0,0,0)" stroke="none" style="white-space: pre">Tuesday</tspan></tspan></tspan></text>
 <text class="SVGTextShape"><tspan class="TextParagraph" font-family="Liberation Sans, sans-serif" font-size="353px" font-weight="400"><tspan class="TextPosition" x="4784" y="7846"><tspan fill="rgb(0,0,0)" stroke="none" style="white-space: pre">Wesnsday</tspan></tspan></tspan></text>
 <text class="SVGTextShape"><tspan class="TextParagraph" font-family="Liberation Sans, sans-serif" font-size="353px" font-weight="400"><tspan class="TextPosition" x="6707" y="7846"><tspan fill="rgb(0,0,0)" stroke="none" style="white-space: pre">Thursday</tspan></tspan></tspan></text>
 <text class="SVGTextShape"><tspan class="TextParagraph" font-family="Liberation Sans, sans-serif" font-size="353px" font-weight="400"><tspan class="TextPosition" x="8776" y="7846"><tspan fill="rgb(0,0,0)" stroke="none" style="white-space: pre">Friday</tspan></tspan></tspan></text>
 <text class="SVGTextShape"><tspan class="TextParagraph" font-family="Liberation Sans, sans-serif" font-size="353px" font-weight="400"><tspan class="TextPosition" x="10396" y="7846"><tspan fill="rgb(0,0,0)" stroke="none" style="white-space: pre">Saturday</tspan></tspan></tspan></text>
 <text class="SVGTextShape"><tspan class="TextParagraph" font-family="Liberation Sans, sans-serif" font-size="353px" font-weight="400"><tspan class="TextPosition" x="12333" y="7846"><tspan fill="rgb(0,0,0)" stroke="none" style="white-space: pre">Sunday</tspan></tspan></tspan></text>
 <text class="SVGTextShape"><tspan class="TextParagraph" font-family="Liberation Sans, sans-serif" font-size="353px" font-weight="400"><tspan class="TextPosition" x="1495" y="7399"><tspan fill="rgb(0,0,0)" stroke="none" style="white-space: pre">0</tspan></tspan></tspan></text>
 <text class="SVGTextShape"><tspan class="TextParagraph" font-family="Liberation Sans, sans-serif" font-size="353px" font-weight="400"><tspan class="TextPosition" x="1495" y="6692"><tspan fill="rgb(0,0,0)" stroke="none" style="white-space: pre">1</tspan></tspan></tspan></text>
 <text class="SVGTextShape"><tspan class="TextParagraph" font-family="Liberation Sans, sans-serif" font-size="353px" font-weight="400"><tspan class="TextPosition" x="1495" y="5985"><tspan fill="rgb(0,0,0)" stroke="none" style="white-space: pre">2</tspan></tspan></tspan></text>
 <text class="SVGTextShape"><tspan class="TextParagraph" font-family="Liberation Sans, sans-serif" font-size="353px" font-weight="400"><tspan class="TextPosition" x="1495" y="5278"><tspan fill="rgb(0,0,0)" stroke="none" style="white-space: pre">3</tspan></tspan></tspan></text>
 <text class="SVGTextShape"><tspan class="TextParagraph" font-family="Liberation Sans, sans-serif" font-size="353px" font-weight="400"><tspan class="TextPosition" x="1495" y="4571"><tspan fill="rgb(0,0,0)" stroke="none" style="white-space: pre">4</tspan></tspan></tspan></text>
 <text class="SVGTextShape"><tspan class="TextParagraph" font-family="Liberation Sans, sans-serif" font-size="353px" font-weight="400"><tspan class="TextPosition" x="1495" y="3864"><tspan fill="rgb(0,0,0)" stroke="none" style="white-space: pre">5</tspan></tspan></tspan></text>
 <text class="SVGTextShape"><tspan class="TextParagraph" font-family="Liberation Sans, sans-serif" font-size="353px" font-weight="400"><tspan class="TextPosition" x="1495" y="3156"><tspan fill="rgb(0,0,0)" stroke="none" style="white-space: pre">6</tspan></tspan></tspan></text>
 <text class="SVGTextShape"><tspan class="TextParagraph" font-family="Liberation Sans, sans-serif" font-size="353px" font-weight="400"><tspan class="TextPosition" x="1495" y="2449"><tspan fill="rgb(0,0,0)" stroke="none" style="white-space: pre">7</tspan></tspan></tspan></text>
 <text class="SVGTextShape"><tspan class="TextParagraph" font-family="Liberation Sans, sans-serif" font-size="459px" font-weight="400"><tspan class="TextPosition" x="6346" y="840"><tspan fill="rgb(0,0,0)" stroke="none" style="white-space: pre">Daily screen time</tspan></tspan></tspan></text>
 <text class="SVGTextShape"><tspan class="TextParagraph" font-family="Liberation Sans, sans-serif" font-size="388px" font-weight="400"><tspan class="TextPosition" x="6954" y="1752"><tspan fill="rgb(0,0,0)" stroke="none" style="white-space: pre">11/02 - 17/02</tspan></tspan></tspan></text>
 <path fill="none" stroke="rgb(255,0,0)" stroke-width="80" stroke-linejoin="round" d="M 13937,3790 L 14737,3790"/>
 <path fill="none" stroke="rgb(255,128,0)" stroke-width="80" stroke-linejoin="round" d="M 13937,4288 L 14737,4288"/>
 <path fill="none" stroke="rgb(129,212,26)" stroke-width="80" stroke-linejoin="round" d="M 13937,4785 L 14737,4785"/>
 <path fill="none" stroke="rgb(42,96,153)" stroke-width="80" stroke-linejoin="round" d="M 13937,5283 L 14737,5283"/>
 <text class="SVGTextShape"><tspan class="TextParagraph" font-family="Liberation Sans, sans-serif" font-size="353px" font-weight="400"><tspan class="TextPosition" x="14837" y="3910"><tspan fill="rgb(0,0,0)" stroke="none" style="white-space: pre">Nolan</tspan></tspan></tspan></text>
 <text class="SVGTextShape"><tspan class="TextParagraph" font-family="Liberation Sans, sans-serif" font-size="353px" font-weight="400"><tspan class="TextPosition" x="14837" y="4408"><tspan fill="rgb(0,0,0)" stroke="none" style="white-space: pre">Felix</tspan></tspan></tspan></text>
 <text class="SVGTextShape"><tspan class="TextParagraph" font-family="Liberation Sans, sans-serif" font-size="353px" font-weight="400"><tspan class="TextPosition" x="14837" y="4905"><tspan fill="rgb(0,0,0)" stroke="none" style="white-space: pre">Célian</tspan></tspan></tspan></text>
 <text class="SVGTextShape"><tspan class="TextParagraph" font-family="Liberation Sans, sans-serif" font-size="353px" font-weight="400"><tspan class="TextPosition" x="14837" y="5403"><tspan fill="rgb(0,0,0)" stroke="none" style="white-space: pre">Arthus</tspan></tspan></tspan></text>
 <text class="SVGTextShape"><tspan class="TextParagraph" font-family="Liberation Sans, sans-serif" font-size="318px" font-weight="400"><tspan class="TextPosition" x="6259" y="8495"><tspan fill="rgb(0,0,0)" stroke="none" style="white-space: pre">Day of the week</tspan></tspan></tspan></text>
 <text class="SVGTextShape" transform="rotate(-90 824 6629)"><tspan class="TextParagraph" font-family="Liberation Sans, sans-serif" font-size="318px" font-weight="400"><tspan class="TextPosition" x="824" y="6629"><tspan fill="rgb(0,0,0)" stroke="none" style="white-space: pre">Hours spent on phone</tspan></tspan></tspan></text>
</svg>